<svg width="44" height="44" viewBox="0 0 44 44" fill="none" xmlns="http://www.w3.org/2000/svg">
<g id="arrow">
<path id="Vector" d="M4.8138 21.9996C4.8138 21.4526 5.03111 20.928 5.4179 20.5412C5.80469 20.1544 6.3293 19.9371 6.8763 19.9371H32.1419L23.2869 11.0838C22.8995 10.6964 22.6818 10.1708 22.6818 9.62289C22.6818 9.07493 22.8995 8.54942 23.2869 8.16195C23.6744 7.77448 24.1999 7.55681 24.7479 7.55681C25.2958 7.55681 25.8213 7.77448 26.2088 8.16195L38.5838 20.537C38.7761 20.7286 38.9286 20.9562 39.0327 21.2069C39.1368 21.4577 39.1904 21.7264 39.1904 21.9979C39.1904 22.2693 39.1368 22.5381 39.0327 22.7888C38.9286 23.0395 38.7761 23.2672 38.5838 23.4588L26.2088 35.8338C26.017 36.0257 25.7892 36.1779 25.5385 36.2817C25.2879 36.3855 25.0192 36.439 24.7479 36.439C24.4765 36.439 24.2079 36.3855 23.9572 36.2817C23.7065 36.1779 23.4788 36.0257 23.2869 35.8338C23.0951 35.642 22.9429 35.4142 22.8391 35.1635C22.7352 34.9129 22.6818 34.6442 22.6818 34.3729C22.6818 34.1016 22.7352 33.8329 22.8391 33.5822C22.9429 33.3316 23.0951 33.1038 23.2869 32.9119L32.1419 24.0621H6.8763C6.3293 24.0621 5.80469 23.8448 5.4179 23.458C5.03111 23.0712 4.8138 22.5466 4.8138 21.9996Z" fill="#23262F"/>
</g>
</svg>
