<svg width="48" height="36" viewBox="0 0 48 36" fill="none" xmlns="http://www.w3.org/2000/svg">
<path d="M24 28.8V0L39 8.60591L38.9202 19.1716V28.8H24ZM27.7947 25.7325H35.2117C35.2117 25.2672 35.2117 19.2048 35.2117 19.2048H27.7947V25.7325ZM27.7947 16.1042H35.2117V10.4805L27.7947 6.0497V16.1042Z" fill="#445798"/>
<path d="M12.6492 28.8H9V8.71692L23 0V28.8H19.3508V6.06766L12.6492 10.2552V28.8ZM12.1622 16.0665H19.7898V19.314H12.1622V16.0665Z" fill="#445798"/>
<path d="M2.14506 35.8987L1.9988 35.0882H1.14295L0.996693 35.8987H0L0.996693 31.9871H2.16672L3.158 35.8987H2.14506ZM1.27295 34.3678H1.8688L1.57087 32.7187L1.27295 34.3678Z" fill="#445798"/>
<path d="M4.45169 31.9871C4.94281 31.9871 5.32018 32.0977 5.5838 32.3191C5.84742 32.5367 5.97923 32.8576 5.97923 33.2816C5.97923 33.7206 5.85284 34.0564 5.60005 34.289C5.34727 34.5179 5.00059 34.6324 4.56002 34.6324H4.28918V35.8987H3.30874V31.9871H4.45169ZM4.46794 33.9063C4.64489 33.9063 4.77308 33.8575 4.85253 33.76C4.93559 33.6624 4.97712 33.5029 4.97712 33.2816C4.97712 33.0864 4.93739 32.942 4.85795 32.8482C4.7785 32.7506 4.6485 32.7018 4.46794 32.7018H4.28918V33.9063H4.46794Z" fill="#445798"/>
<path d="M7.85243 33.7937L8.80037 35.8987H7.76034L7.262 34.4691L6.79073 35.8987H5.77237L6.6824 33.8219L5.83196 31.9871H6.87199L7.27283 33.1915L7.71159 31.9871H8.72995L7.85243 33.7937Z" fill="#445798"/>
<path d="M9.98106 31.9871V35.8987H9.00062V31.9871H9.98106Z" fill="#445798"/>
<path d="M12.9307 31.9871L12.8278 32.7581H12.0532V35.8987H11.0727V32.7581H10.2439V31.9871H12.9307Z" fill="#445798"/>
<path d="M15.3632 31.9871L15.2603 32.7075H14.1336V33.563H15.1249V34.2665H14.1336V35.1727H15.3361V35.8987H13.1532V31.9871H15.3632Z" fill="#445798"/>
<path d="M18.5899 31.9871L17.8099 33.7487L18.682 35.8987H17.642L16.9865 34.2327H16.6886V35.8987H15.7082V31.9871H16.6886V33.5011H17.0082L17.6582 31.9871H18.5899Z" fill="#445798"/>
<path d="M21.3363 31.9871L21.2333 32.7581H20.4587V35.8987H19.4783V32.7581H18.6495V31.9871H21.3363Z" fill="#445798"/>
<path d="M23.4655 34.7055C23.3643 35.0207 23.2434 35.2684 23.1025 35.4485C22.9653 35.6248 22.7992 35.7543 22.6042 35.8368C22.4128 35.9194 22.169 35.9738 21.8729 36L21.7537 35.3246C21.9668 35.3021 22.1311 35.259 22.2467 35.1952C22.3658 35.1276 22.4651 35.0207 22.5446 34.8744H22.2358L21.2175 31.9871H22.2033L22.8209 34.3059L23.3517 31.9871H24.3376L23.4655 34.7055Z" fill="#445798"/>
<path d="M25.6005 31.9871C26.0916 31.9871 26.469 32.0977 26.7326 32.3191C26.9963 32.5367 27.1281 32.8576 27.1281 33.2816C27.1281 33.7206 27.0017 34.0564 26.7489 34.289C26.4961 34.5179 26.1494 34.6324 25.7089 34.6324H25.438V35.8987H24.4576V31.9871H25.6005ZM25.6168 33.9063C25.7937 33.9063 25.9219 33.8575 26.0014 33.76C26.0844 33.6624 26.126 33.5029 26.126 33.2816C26.126 33.0864 26.0862 32.942 26.0068 32.8482C25.9273 32.7506 25.7973 32.7018 25.6168 32.7018H25.438V33.9063H25.6168Z" fill="#445798"/>
<path d="M29.2232 35.8987V34.2665H28.4215V35.8987H27.4411V31.9871H28.4215V33.4786H29.2232V31.9871H30.2036V35.8987H29.2232Z" fill="#445798"/>
<path d="M32.8938 31.9871L32.7909 32.7075H31.6642V33.563H32.6555V34.2665H31.6642V35.1727H32.8667V35.8987H30.6837V31.9871H32.8938Z" fill="#445798"/>
<path d="M35.6015 33.366C36.0529 33.366 36.3978 33.4692 36.6361 33.6755C36.8745 33.8819 36.9936 34.1877 36.9936 34.593C36.9936 35.0207 36.8691 35.3453 36.6199 35.5667C36.3743 35.788 36.0349 35.8987 35.6015 35.8987H34.3232V31.9871H36.582L36.4899 32.7525H35.3036V33.366H35.6015ZM35.5149 35.1727C35.6737 35.1727 35.7893 35.1258 35.8615 35.032C35.9374 34.9382 35.9753 34.7956 35.9753 34.6042C35.9753 34.4241 35.9374 34.289 35.8615 34.199C35.7893 34.1052 35.6683 34.0583 35.4986 34.0583H35.3036V35.1727H35.5149Z" fill="#445798"/>
<path d="M40.064 31.8857C40.5588 31.8857 40.938 32.0602 41.2016 32.4092C41.4652 32.7581 41.597 33.2684 41.597 33.9401C41.597 34.6005 41.4634 35.1089 41.1962 35.4653C40.9325 35.8218 40.5552 36 40.064 36C39.1721 36 38.6809 35.4241 38.5907 34.2721H38.2765V35.8987H37.296V31.9871H38.2765V33.4842H38.6069C38.6828 32.9514 38.838 32.5518 39.0728 32.2854C39.3111 32.0189 39.6415 31.8857 40.064 31.8857ZM40.064 35.2684C40.1868 35.2684 40.2843 35.2252 40.3565 35.1389C40.4324 35.0526 40.4884 34.9138 40.5245 34.7224C40.5606 34.531 40.5786 34.2703 40.5786 33.9401C40.5786 33.456 40.5371 33.1146 40.454 32.9157C40.3746 32.7169 40.2446 32.6174 40.064 32.6174C39.9413 32.6174 39.8419 32.6606 39.7661 32.7469C39.6939 32.8294 39.6397 32.9683 39.6036 33.1634C39.5711 33.3585 39.5549 33.6211 39.5549 33.9513C39.5549 34.4316 39.5946 34.7712 39.674 34.9701C39.7535 35.1689 39.8835 35.2684 40.064 35.2684Z" fill="#445798"/>
<path d="M43.1152 31.9871C43.6064 31.9871 43.9837 32.0977 44.2473 32.3191C44.511 32.5367 44.6428 32.8576 44.6428 33.2816C44.6428 33.7206 44.5164 34.0564 44.2636 34.289C44.0108 34.5179 43.6641 34.6324 43.2236 34.6324H42.9527V35.8987H41.9723V31.9871H43.1152ZM43.1315 33.9063C43.3084 33.9063 43.4366 33.8575 43.5161 33.76C43.5991 33.6624 43.6407 33.5029 43.6407 33.2816C43.6407 33.0864 43.6009 32.942 43.5215 32.8482C43.442 32.7506 43.312 32.7018 43.1315 32.7018H42.9527V33.9063H43.1315Z" fill="#445798"/>
<path d="M46.4183 31.8857C46.9275 31.8857 47.3175 32.0602 47.5883 32.4092C47.8628 32.7581 48 33.2684 48 33.9401C48 34.6042 47.8628 35.1145 47.5883 35.471C47.3139 35.8237 46.9239 36 46.4183 36C45.9127 36 45.5227 35.8256 45.2483 35.4766C44.9774 35.1239 44.842 34.6117 44.842 33.9401C44.842 33.2797 44.9774 32.7731 45.2483 32.4204C45.5227 32.064 45.9127 31.8857 46.4183 31.8857ZM46.4183 32.6174C46.2233 32.6174 46.0807 32.7187 45.9904 32.9213C45.9037 33.1202 45.8604 33.4598 45.8604 33.9401C45.8604 34.4241 45.9037 34.7674 45.9904 34.9701C46.0807 35.1689 46.2233 35.2684 46.4183 35.2684C46.5555 35.2684 46.6639 35.2271 46.7433 35.1445C46.8264 35.0582 46.8859 34.9194 46.9221 34.728C46.9618 34.5329 46.9816 34.2703 46.9816 33.9401C46.9816 33.4598 46.9365 33.1202 46.8462 32.9213C46.7596 32.7187 46.6169 32.6174 46.4183 32.6174Z" fill="#445798"/>
</svg>
