<svg width="20" height="20" viewBox="0 0 20 20" fill="none" xmlns="http://www.w3.org/2000/svg">
<g id="Line Rounded/Email">
<g id="Email">
<path id="Vector" d="M18.3332 5.94958V14.2829C18.3332 14.8355 18.1137 15.3654 17.723 15.7561C17.3323 16.1468 16.8024 16.3663 16.2498 16.3663H3.74984C3.1973 16.3663 2.6674 16.1468 2.2767 15.7561C1.886 15.3654 1.6665 14.8355 1.6665 14.2829V5.94958" stroke="#4D4D4D" stroke-width="1.4" stroke-linecap="round" stroke-linejoin="round"/>
<path id="Vector_2" d="M18.3332 5.94954C18.3332 5.39701 18.1137 4.86711 17.723 4.47641C17.3323 4.0857 16.8024 3.86621 16.2498 3.86621H3.74984C3.1973 3.86621 2.6674 4.0857 2.2767 4.47641C1.886 4.86711 1.6665 5.39701 1.6665 5.94954L8.89567 10.4634C9.22678 10.6704 9.60938 10.7801 9.99984 10.7801C10.3903 10.7801 10.7729 10.6704 11.104 10.4634L18.3332 5.94954Z" stroke="#4D4D4D" stroke-width="1.4" stroke-linecap="round" stroke-linejoin="round"/>
</g>
</g>
</svg>
