<svg xmlns="http://www.w3.org/2000/svg" width="20" height="20" fill="none" viewBox="0 0 20 20"><g id="Line Rounded/Mark"><g id="Mark"><path id="Vector" stroke="#4D4D4D" stroke-linecap="round" stroke-linejoin="round" stroke-width="1.4" d="M16.8607 8.95618C16.8607 14.335 11.3515 17.6488 10.2066 18.28C10.1432 18.3149 10.0719 18.3333 9.99949 18.3333C9.92706 18.3333 9.85581 18.3149 9.79238 18.28C8.64664 17.6488 3.13916 14.335 3.13916 8.95618C3.13916 4.66821 5.71195 1.66663 9.99992 1.66663C14.2879 1.66663 16.8607 4.66821 16.8607 8.95618Z"/><path id="Vector_2" stroke="#4D4D4D" stroke-linecap="round" stroke-linejoin="round" stroke-width="1.4" d="M6.56934 8.52743C6.56934 9.43722 6.93075 10.3098 7.57407 10.9531C8.21739 11.5964 9.08992 11.9578 9.99972 11.9578C10.9095 11.9578 11.782 11.5964 12.4254 10.9531C13.0687 10.3098 13.4301 9.43722 13.4301 8.52743C13.4301 7.61763 13.0687 6.7451 12.4254 6.10178C11.782 5.45846 10.9095 5.09705 9.99972 5.09705C9.08992 5.09705 8.21739 5.45846 7.57407 6.10178C6.93075 6.7451 6.56934 7.61763 6.56934 8.52743V8.52743Z"/></g></g></svg>